# Blender v2.93.2 OBJ File: 'blocky_robot.blend'
# www.blender.org
mtllib blocky_robot.mtl
o Cube.006_Cube.007
v 0.274733 0.021573 0.072038
v 0.171568 0.802723 0.072038
v 0.114295 0.000384 0.072038
v 0.011129 0.781534 0.072038
v 0.274733 0.021573 -0.072038
v 0.171568 0.802723 -0.072038
v 0.114295 0.000384 -0.072038
v 0.011129 0.781534 -0.072038
v 0.142291 0.740608 0.142604
v 0.142291 1.545086 0.142604
v -0.142917 0.740608 0.142604
v -0.142917 1.545086 0.142604
v 0.142291 0.740608 -0.142604
v 0.142291 1.545086 -0.142604
v -0.142917 0.740608 -0.142604
v -0.142917 1.545086 -0.142604
v -0.274649 0.822011 0.072038
v -0.109661 1.414429 0.072038
v -0.426808 0.864387 0.072038
v -0.261820 1.456805 0.072038
v -0.274649 0.822011 -0.072038
v -0.109661 1.414429 -0.072038
v -0.426808 0.864387 -0.072038
v -0.261820 1.456805 -0.072038
v 0.429510 0.864387 0.072038
v 0.264522 1.456805 0.072038
v 0.277351 0.822011 0.072038
v 0.112363 1.414429 0.072038
v 0.429510 0.864387 -0.072038
v 0.264522 1.456805 -0.072038
v 0.277351 0.822011 -0.072038
v 0.112363 1.414429 -0.072038
v 0.079927 1.560595 0.072038
v 0.079927 1.732877 0.072038
v -0.078022 1.560595 0.072038
v -0.078022 1.732877 0.072038
v 0.079927 1.560595 -0.072038
v 0.079927 1.732877 -0.072038
v -0.078022 1.560595 -0.072038
v -0.078022 1.732877 -0.072038
v -0.114328 0.000384 0.072038
v -0.011162 0.781534 0.072038
v -0.274767 0.021573 0.072038
v -0.171601 0.802723 0.072038
v -0.114328 0.000384 -0.072038
v -0.011162 0.781534 -0.072038
v -0.274767 0.021573 -0.072038
v -0.171601 0.802723 -0.072038
v 0.050594 1.506200 0.050594
v 0.050594 1.607389 0.050594
v -0.050594 1.506200 0.050594
v -0.050594 1.607389 0.050594
v 0.050594 1.506200 -0.050594
v 0.050594 1.607389 -0.050594
v -0.050594 1.506200 -0.050594
v -0.050594 1.607389 -0.050594
v 0.056295 1.652432 -0.051449
v 0.056295 1.696839 -0.051449
v 0.011888 1.652432 -0.051449
v 0.011888 1.696839 -0.051449
v 0.056295 1.652432 -0.095856
v 0.056295 1.696839 -0.095856
v 0.011888 1.652432 -0.095856
v 0.011888 1.696839 -0.095856
v -0.013512 1.652432 -0.051449
v -0.013512 1.696839 -0.051449
v -0.057919 1.652432 -0.051449
v -0.057919 1.696839 -0.051449
v -0.013512 1.652432 -0.095856
v -0.013512 1.696839 -0.095856
v -0.057919 1.652432 -0.095856
v -0.057919 1.696839 -0.095856
vt 0.375000 0.000000
vt 0.625000 0.000000
vt 0.625000 0.250000
vt 0.375000 0.250000
vt 0.625000 0.500000
vt 0.375000 0.500000
vt 0.625000 0.750000
vt 0.375000 0.750000
vt 0.625000 1.000000
vt 0.375000 1.000000
vt 0.125000 0.500000
vt 0.125000 0.750000
vt 0.875000 0.500000
vt 0.875000 0.750000
vt 0.375000 0.000000
vt 0.625000 0.000000
vt 0.625000 0.250000
vt 0.375000 0.250000
vt 0.625000 0.500000
vt 0.375000 0.500000
vt 0.625000 0.750000
vt 0.375000 0.750000
vt 0.625000 1.000000
vt 0.375000 1.000000
vt 0.125000 0.500000
vt 0.125000 0.750000
vt 0.875000 0.500000
vt 0.875000 0.750000
vt 0.375000 0.000000
vt 0.625000 0.000000
vt 0.625000 0.250000
vt 0.375000 0.250000
vt 0.625000 0.500000
vt 0.375000 0.500000
vt 0.625000 0.750000
vt 0.375000 0.750000
vt 0.625000 1.000000
vt 0.375000 1.000000
vt 0.125000 0.500000
vt 0.125000 0.750000
vt 0.875000 0.500000
vt 0.875000 0.750000
vt 0.375000 0.000000
vt 0.625000 0.000000
vt 0.625000 0.250000
vt 0.375000 0.250000
vt 0.625000 0.500000
vt 0.375000 0.500000
vt 0.625000 0.750000
vt 0.375000 0.750000
vt 0.625000 1.000000
vt 0.375000 1.000000
vt 0.125000 0.500000
vt 0.125000 0.750000
vt 0.875000 0.500000
vt 0.875000 0.750000
vt 0.375000 0.000000
vt 0.625000 0.000000
vt 0.625000 0.250000
vt 0.375000 0.250000
vt 0.625000 0.500000
vt 0.375000 0.500000
vt 0.625000 0.750000
vt 0.375000 0.750000
vt 0.625000 1.000000
vt 0.375000 1.000000
vt 0.125000 0.500000
vt 0.125000 0.750000
vt 0.875000 0.500000
vt 0.875000 0.750000
vt 0.375000 0.000000
vt 0.625000 0.000000
vt 0.625000 0.250000
vt 0.375000 0.250000
vt 0.625000 0.500000
vt 0.375000 0.500000
vt 0.625000 0.750000
vt 0.375000 0.750000
vt 0.625000 1.000000
vt 0.375000 1.000000
vt 0.125000 0.500000
vt 0.125000 0.750000
vt 0.875000 0.500000
vt 0.875000 0.750000
vt 0.375000 0.000000
vt 0.625000 0.000000
vt 0.625000 0.250000
vt 0.375000 0.250000
vt 0.625000 0.500000
vt 0.375000 0.500000
vt 0.625000 0.750000
vt 0.375000 0.750000
vt 0.625000 1.000000
vt 0.375000 1.000000
vt 0.125000 0.500000
vt 0.125000 0.750000
vt 0.875000 0.500000
vt 0.875000 0.750000
vt 0.375000 0.000000
vt 0.625000 0.000000
vt 0.625000 0.250000
vt 0.375000 0.250000
vt 0.625000 0.500000
vt 0.375000 0.500000
vt 0.625000 0.750000
vt 0.375000 0.750000
vt 0.625000 1.000000
vt 0.375000 1.000000
vt 0.125000 0.500000
vt 0.125000 0.750000
vt 0.875000 0.500000
vt 0.875000 0.750000
vt 0.375000 0.000000
vt 0.625000 0.000000
vt 0.625000 0.250000
vt 0.375000 0.250000
vt 0.625000 0.500000
vt 0.375000 0.500000
vt 0.625000 0.750000
vt 0.375000 0.750000
vt 0.625000 1.000000
vt 0.375000 1.000000
vt 0.125000 0.500000
vt 0.125000 0.750000
vt 0.875000 0.500000
vt 0.875000 0.750000
vn 0.0000 0.0000 1.0000
vn -0.9914 -0.1309 0.0000
vn 0.0000 0.0000 -1.0000
vn 0.9914 0.1309 0.0000
vn 0.1309 -0.9914 0.0000
vn -0.1309 0.9914 0.0000
vn -1.0000 -0.0000 0.0000
vn 1.0000 -0.0000 0.0000
vn 0.0000 -1.0000 0.0000
vn -0.0000 1.0000 0.0000
vn -0.9633 0.2683 0.0000
vn 0.9633 -0.2683 0.0000
vn -0.2683 -0.9633 0.0000
vn 0.2683 0.9633 0.0000
vn -0.9633 -0.2683 0.0000
vn 0.9633 0.2683 0.0000
vn 0.2683 -0.9633 0.0000
vn -0.2683 0.9633 0.0000
vn -0.9914 0.1309 0.0000
vn 0.9914 -0.1309 0.0000
vn -0.1309 -0.9914 0.0000
vn 0.1309 0.9914 0.0000
usemtl None
s off
f 1/1/1 2/2/1 4/3/1 3/4/1
f 3/4/2 4/3/2 8/5/2 7/6/2
f 7/6/3 8/5/3 6/7/3 5/8/3
f 5/8/4 6/7/4 2/9/4 1/10/4
f 3/11/5 7/6/5 5/8/5 1/12/5
f 8/5/6 4/13/6 2/14/6 6/7/6
f 9/15/1 10/16/1 12/17/1 11/18/1
f 11/18/7 12/17/7 16/19/7 15/20/7
f 15/20/3 16/19/3 14/21/3 13/22/3
f 13/22/8 14/21/8 10/23/8 9/24/8
f 11/25/9 15/20/9 13/22/9 9/26/9
f 16/19/10 12/27/10 10/28/10 14/21/10
f 17/29/1 18/30/1 20/31/1 19/32/1
f 19/32/11 20/31/11 24/33/11 23/34/11
f 23/34/3 24/33/3 22/35/3 21/36/3
f 21/36/12 22/35/12 18/37/12 17/38/12
f 19/39/13 23/34/13 21/36/13 17/40/13
f 24/33/14 20/41/14 18/42/14 22/35/14
f 25/43/1 26/44/1 28/45/1 27/46/1
f 27/46/15 28/45/15 32/47/15 31/48/15
f 31/48/3 32/47/3 30/49/3 29/50/3
f 29/50/16 30/49/16 26/51/16 25/52/16
f 27/53/17 31/48/17 29/50/17 25/54/17
f 32/47/18 28/55/18 26/56/18 30/49/18
f 33/57/1 34/58/1 36/59/1 35/60/1
f 35/60/7 36/59/7 40/61/7 39/62/7
f 39/62/3 40/61/3 38/63/3 37/64/3
f 37/64/8 38/63/8 34/65/8 33/66/8
f 35/67/9 39/62/9 37/64/9 33/68/9
f 40/61/10 36/69/10 34/70/10 38/63/10
f 41/71/1 42/72/1 44/73/1 43/74/1
f 43/74/19 44/73/19 48/75/19 47/76/19
f 47/76/3 48/75/3 46/77/3 45/78/3
f 45/78/20 46/77/20 42/79/20 41/80/20
f 43/81/21 47/76/21 45/78/21 41/82/21
f 48/75/22 44/83/22 42/84/22 46/77/22
f 49/85/1 50/86/1 52/87/1 51/88/1
f 51/88/7 52/87/7 56/89/7 55/90/7
f 55/90/3 56/89/3 54/91/3 53/92/3
f 53/92/8 54/91/8 50/93/8 49/94/8
f 51/95/9 55/90/9 53/92/9 49/96/9
f 56/89/10 52/97/10 50/98/10 54/91/10
f 57/99/1 58/100/1 60/101/1 59/102/1
f 59/102/7 60/101/7 64/103/7 63/104/7
f 63/104/3 64/103/3 62/105/3 61/106/3
f 61/106/8 62/105/8 58/107/8 57/108/8
f 59/109/9 63/104/9 61/106/9 57/110/9
f 64/103/10 60/111/10 58/112/10 62/105/10
f 65/113/1 66/114/1 68/115/1 67/116/1
f 67/116/7 68/115/7 72/117/7 71/118/7
f 71/118/3 72/117/3 70/119/3 69/120/3
f 69/120/8 70/119/8 66/121/8 65/122/8
f 67/123/9 71/118/9 69/120/9 65/124/9
f 72/117/10 68/125/10 66/126/10 70/119/10
