# Blender v2.93.2 OBJ File: ''
# www.blender.org
mtllib sofa.mtl
o Cube
v -1.000000 0.400000 -0.550505
v -1.000000 0.000000 -0.550505
v -1.000000 0.400000 0.550505
v -1.000000 0.000000 0.550505
v -1.000000 0.000000 0.205403
v -1.000000 0.400000 0.205403
v -1.000000 0.814019 0.550505
v -1.000000 0.814019 0.205403
v -0.713863 0.400000 0.550505
v -0.713863 0.000000 -0.550505
v -0.713863 0.814019 0.550505
v -0.713863 0.000000 0.550505
v -0.713863 0.400000 -0.550505
v -0.713863 0.000000 0.205403
v -0.713863 0.400000 0.205403
v -0.713863 0.814019 0.205403
v -1.000000 0.571733 0.205403
v -1.000000 0.571733 0.550505
v -0.713863 0.571733 0.550505
v -0.713863 0.571733 0.205403
v -1.000000 0.571733 -0.550505
v -0.713863 0.571733 -0.550505
v -1.000000 0.400000 -0.031149
v -1.000000 0.000000 -0.031149
v -0.713863 0.000000 -0.031149
v -0.713863 0.400000 -0.031149
v -0.713863 0.571733 -0.031149
v -1.000000 0.571733 -0.031149
v -1.000000 0.200000 -0.550505
v -1.000000 0.200000 0.550505
v -1.000000 0.200000 0.205403
v -0.713863 0.200000 -0.550505
v -0.713863 0.200000 0.550505
v -1.000000 0.200000 -0.031149
v -1.000000 0.400000 -0.290827
v -0.713863 0.400000 -0.290827
v -0.713863 0.571733 -0.290827
v -1.000000 0.000000 -0.290827
v -0.713863 0.000000 -0.290827
v -1.000000 0.571733 -0.290827
v -1.000000 0.200000 -0.290827
v 1.000000 0.400000 -0.550505
v 1.000000 0.000000 -0.550505
v 1.000000 0.400000 0.550505
v 1.000000 0.000000 0.550505
v 1.000000 0.000000 0.205403
v 1.000000 0.400000 0.205403
v 1.000000 0.814019 0.550505
v 1.000000 0.814019 0.205403
v 0.000000 0.000000 0.550505
v 0.000000 0.400000 -0.550505
v 0.000000 0.400000 0.550505
v 0.000000 0.000000 -0.550505
v 0.000000 0.000000 0.205403
v 0.000000 0.400000 0.205403
v 0.000000 0.814019 0.550505
v 0.000000 0.814019 0.205403
v 0.713863 0.400000 0.550505
v 0.713863 0.000000 -0.550505
v 0.713863 0.814019 0.550505
v 0.713863 0.000000 0.550505
v 0.713863 0.400000 -0.550505
v 0.713863 0.000000 0.205403
v 0.713863 0.400000 0.205403
v 0.713863 0.814019 0.205403
v 1.000000 0.571733 0.205403
v 1.000000 0.571733 0.550505
v 0.000000 0.571733 0.550505
v 0.000000 0.571733 0.205403
v 0.713863 0.571733 0.550505
v 0.713863 0.571733 0.205403
v 1.000000 0.571733 -0.550505
v 0.713863 0.571733 -0.550505
v 1.000000 0.400000 -0.031149
v 1.000000 0.000000 -0.031149
v 0.000000 0.400000 -0.031149
v 0.000000 0.000000 -0.031149
v 0.713863 0.000000 -0.031149
v 0.713863 0.400000 -0.031149
v 0.713863 0.571733 -0.031149
v 1.000000 0.571733 -0.031149
v 1.000000 0.200000 -0.550505
v 1.000000 0.200000 0.550505
v 1.000000 0.200000 0.205403
v 0.000000 0.200000 -0.550505
v 0.000000 0.200000 0.550505
v 0.713863 0.200000 -0.550505
v 0.713863 0.200000 0.550505
v 1.000000 0.200000 -0.031149
v 1.000000 0.400000 -0.290827
v 0.000000 0.400000 -0.290827
v 0.713863 0.400000 -0.290827
v 0.713863 0.571733 -0.290827
v 1.000000 0.000000 -0.290827
v 0.000000 0.000000 -0.290827
v 0.713863 0.000000 -0.290827
v 1.000000 0.571733 -0.290827
v 1.000000 0.200000 -0.290827
vt 0.796640 0.535767
vt 0.796640 0.500000
vt 0.796640 0.500000
vt 0.796640 0.535767
vt 0.500000 0.214233
vt 0.625000 0.214233
vt 0.625000 0.250000
vt 0.500000 0.250000
vt 0.500000 0.441036
vt 0.625000 0.441036
vt 0.625000 0.500000
vt 0.500000 0.500000
vt 0.625000 0.328360
vt 0.500000 0.328360
vt 0.625000 0.328360
vt 0.625000 0.250000
vt 0.625000 0.250000
vt 0.625000 0.328360
vt 0.625000 0.214233
vt 0.625000 0.125000
vt 0.625000 0.125000
vt 0.625000 0.214233
vt 0.875000 0.535767
vt 0.875000 0.625000
vt 0.796640 0.625000
vt 0.742927 0.535767
vt 0.796640 0.535767
vt 0.796640 0.625000
vt 0.742927 0.625000
vt 0.125000 0.535767
vt 0.203360 0.535767
vt 0.203360 0.625000
vt 0.125000 0.625000
vt 0.500000 0.535767
vt 0.625000 0.535767
vt 0.625000 0.625000
vt 0.500000 0.625000
vt 0.316036 0.535767
vt 0.375000 0.535767
vt 0.375000 0.625000
vt 0.316036 0.625000
vt 0.316036 0.500000
vt 0.375000 0.500000
vt 0.125000 0.500000
vt 0.203360 0.500000
vt 0.625000 0.500000
vt 0.625000 0.535767
vt 0.875000 0.500000
vt 0.500000 0.125000
vt 0.625000 0.125000
vt 0.796640 0.625000
vt 0.742927 0.535767
vt 0.742927 0.500000
vt 0.625000 0.441036
vt 0.625000 0.382073
vt 0.625000 0.382073
vt 0.683964 0.535767
vt 0.683964 0.500000
vt 0.683964 0.535767
vt 0.257073 0.500000
vt 0.257073 0.535767
vt 0.257073 0.625000
vt 0.683964 0.625000
vt 0.500000 0.382073
vt 0.375000 0.328360
vt 0.375000 0.382073
vt 0.375000 0.125000
vt 0.375000 0.214233
vt 0.375000 0.250000
vt 0.375000 0.441036
vt 0.796640 0.535767
vt 0.796640 0.535767
vt 0.796640 0.500000
vt 0.796640 0.500000
vt 0.500000 0.214233
vt 0.500000 0.250000
vt 0.625000 0.250000
vt 0.625000 0.214233
vt 0.500000 0.441036
vt 0.500000 0.500000
vt 0.625000 0.500000
vt 0.625000 0.441036
vt 0.500000 0.328360
vt 0.625000 0.328360
vt 0.625000 0.328360
vt 0.625000 0.328360
vt 0.625000 0.250000
vt 0.625000 0.250000
vt 0.625000 0.214233
vt 0.625000 0.214233
vt 0.875000 0.535767
vt 0.742927 0.535767
vt 0.796640 0.535767
vt 0.125000 0.535767
vt 0.203360 0.535767
vt 0.500000 0.535767
vt 0.625000 0.535767
vt 0.316036 0.535767
vt 0.375000 0.535767
vt 0.316036 0.500000
vt 0.375000 0.500000
vt 0.125000 0.500000
vt 0.203360 0.500000
vt 0.625000 0.535767
vt 0.625000 0.500000
vt 0.875000 0.500000
vt 0.742927 0.535767
vt 0.742927 0.500000
vt 0.625000 0.441036
vt 0.625000 0.382073
vt 0.625000 0.382073
vt 0.683964 0.535767
vt 0.683964 0.500000
vt 0.683964 0.535767
vt 0.257073 0.535767
vt 0.257073 0.500000
vt 0.500000 0.382073
vt 0.375000 0.328360
vt 0.375000 0.382073
vt 0.375000 0.214233
vt 0.375000 0.250000
vt 0.375000 0.441036
vn -0.0000 -0.0000 -1.0000
vn 0.0000 0.0000 1.0000
vn -1.0000 0.0000 0.0000
vn 0.0000 1.0000 0.0000
vn 0.0000 -1.0000 0.0000
vn 1.0000 0.0000 -0.0000
usemtl Material
s off
f 20/1/1 17/2/1 8/3/1 16/4/1
f 33/5/2 9/6/2 3/7/2 30/8/2
f 41/9/3 35/10/3 1/11/3 29/12/3
f 30/8/3 3/7/3 6/13/3 31/14/3
f 17/15/3 18/16/3 7/17/3 8/18/3
f 19/19/2 68/20/2 56/21/2 11/22/2
f 16/4/4 11/23/4 56/24/4 57/25/4
f 26/26/4 15/27/4 55/28/4 76/29/4
f 12/30/5 14/31/5 54/32/5 50/33/5
f 32/34/1 13/35/1 51/36/1 85/37/1
f 39/38/5 10/39/5 53/40/5 95/41/5
f 38/42/5 2/43/5 10/39/5 39/38/5
f 29/12/1 1/11/1 13/35/1 32/34/1
f 4/44/5 5/45/5 14/31/5 12/30/5
f 13/35/1 1/11/1 21/46/1 22/47/1
f 8/3/4 7/48/4 11/23/4 16/4/4
f 18/16/2 19/19/2 11/22/2 7/17/2
f 86/49/2 52/50/2 9/6/2 33/5/2
f 69/51/1 20/1/1 16/4/1 57/25/1
f 55/28/1 15/27/1 20/1/1 69/51/1
f 3/7/2 9/6/2 19/19/2 18/16/2
f 9/6/2 52/50/2 68/20/2 19/19/2
f 6/13/3 3/7/3 18/16/3 17/15/3
f 26/26/6 27/52/6 20/1/6 15/27/6
f 27/52/4 28/53/4 17/2/4 20/1/4
f 35/10/3 40/54/3 21/46/3 1/11/3
f 6/13/3 17/15/3 28/55/3 23/56/3
f 37/57/4 40/58/4 28/53/4 27/52/4
f 36/59/6 37/57/6 27/52/6 26/26/6
f 5/45/5 24/60/5 25/61/5 14/31/5
f 14/31/5 25/61/5 77/62/5 54/32/5
f 36/59/4 26/26/4 76/29/4 91/63/4
f 31/14/3 6/13/3 23/56/3 34/64/3
f 5/65/3 31/14/3 34/64/3 24/66/3
f 50/67/2 86/49/2 33/5/2 12/68/2
f 2/43/1 29/12/1 32/34/1 10/39/1
f 10/39/1 32/34/1 85/37/1 53/40/1
f 4/69/3 30/8/3 31/14/3 5/65/3
f 38/70/3 41/9/3 29/12/3 2/43/3
f 12/68/2 33/5/2 30/8/2 4/69/2
f 24/66/3 34/64/3 41/9/3 38/70/3
f 13/35/4 36/59/4 91/63/4 51/36/4
f 13/35/6 22/47/6 37/57/6 36/59/6
f 22/47/4 21/46/4 40/58/4 37/57/4
f 23/56/3 28/55/3 40/54/3 35/10/3
f 24/60/5 38/42/5 39/38/5 25/61/5
f 25/61/5 39/38/5 95/41/5 77/62/5
f 34/64/3 23/56/3 35/10/3 41/9/3
f 71/71/1 65/72/1 49/73/1 66/74/1
f 88/75/2 83/76/2 44/77/2 58/78/2
f 98/79/6 82/80/6 42/81/6 90/82/6
f 83/76/6 84/83/6 47/84/6 44/77/6
f 66/85/6 49/86/6 48/87/6 67/88/6
f 70/89/2 60/90/2 56/21/2 68/20/2
f 65/72/4 57/25/4 56/24/4 60/91/4
f 79/92/4 76/29/4 55/28/4 64/93/4
f 61/94/5 50/33/5 54/32/5 63/95/5
f 87/96/1 85/37/1 51/36/1 62/97/1
f 96/98/5 95/41/5 53/40/5 59/99/5
f 94/100/5 96/98/5 59/99/5 43/101/5
f 82/80/1 87/96/1 62/97/1 42/81/1
f 45/102/5 61/94/5 63/95/5 46/103/5
f 62/97/1 73/104/1 72/105/1 42/81/1
f 49/73/4 65/72/4 60/91/4 48/106/4
f 67/88/2 48/87/2 60/90/2 70/89/2
f 86/49/2 88/75/2 58/78/2 52/50/2
f 69/51/1 57/25/1 65/72/1 71/71/1
f 55/28/1 69/51/1 71/71/1 64/93/1
f 44/77/2 67/88/2 70/89/2 58/78/2
f 58/78/2 70/89/2 68/20/2 52/50/2
f 47/84/6 66/85/6 67/88/6 44/77/6
f 79/92/3 64/93/3 71/71/3 80/107/3
f 80/107/4 71/71/4 66/74/4 81/108/4
f 90/82/6 42/81/6 72/105/6 97/109/6
f 47/84/6 74/110/6 81/111/6 66/85/6
f 93/112/4 80/107/4 81/108/4 97/113/4
f 92/114/3 79/92/3 80/107/3 93/112/3
f 46/103/5 63/95/5 78/115/5 75/116/5
f 63/95/5 54/32/5 77/62/5 78/115/5
f 92/114/4 91/63/4 76/29/4 79/92/4
f 84/83/6 89/117/6 74/110/6 47/84/6
f 46/118/6 75/119/6 89/117/6 84/83/6
f 50/67/2 61/120/2 88/75/2 86/49/2
f 43/101/1 59/99/1 87/96/1 82/80/1
f 59/99/1 53/40/1 85/37/1 87/96/1
f 45/121/6 46/118/6 84/83/6 83/76/6
f 94/122/6 43/101/6 82/80/6 98/79/6
f 61/120/2 45/121/2 83/76/2 88/75/2
f 75/119/6 94/122/6 98/79/6 89/117/6
f 62/97/4 51/36/4 91/63/4 92/114/4
f 62/97/3 92/114/3 93/112/3 73/104/3
f 73/104/4 93/112/4 97/113/4 72/105/4
f 74/110/6 90/82/6 97/109/6 81/111/6
f 75/116/5 78/115/5 96/98/5 94/100/5
f 78/115/5 77/62/5 95/41/5 96/98/5
f 89/117/6 98/79/6 90/82/6 74/110/6
