<?xml version="1.0" encoding="UTF-8" standalone="no"?>
<!-- Created with Inkscape (http://www.inkscape.org/) -->

<svg
   width="210mm"
   height="297mm"
   viewBox="0 0 210 297"
   version="1.1"
   id="svg5"
   sodipodi:docname="gear_white.svg"
   inkscape:version="1.1.2 (b8e25be833, 2022-02-05)"
   xmlns:inkscape="http://www.inkscape.org/namespaces/inkscape"
   xmlns:sodipodi="http://sodipodi.sourceforge.net/DTD/sodipodi-0.dtd"
   xmlns="http://www.w3.org/2000/svg"
   xmlns:svg="http://www.w3.org/2000/svg">
  <sodipodi:namedview
     id="namedview7"
     pagecolor="#ffffff"
     bordercolor="#666666"
     borderopacity="1.0"
     inkscape:pageshadow="2"
     inkscape:pageopacity="0.0"
     inkscape:pagecheckerboard="0"
     inkscape:document-units="mm"
     showgrid="true"
     inkscape:snap-bbox="true"
     inkscape:bbox-paths="true"
     inkscape:bbox-nodes="true"
     inkscape:snap-bbox-edge-midpoints="true"
     inkscape:snap-bbox-midpoints="true"
     inkscape:snap-grids="true"
     inkscape:zoom="2.5"
     inkscape:cx="130.2"
     inkscape:cy="102.8"
     inkscape:window-width="1920"
     inkscape:window-height="1017"
     inkscape:window-x="-8"
     inkscape:window-y="-8"
     inkscape:window-maximized="1"
     inkscape:current-layer="layer1"
     inkscape:snap-global="true"
     inkscape:snap-others="true"
     inkscape:object-nodes="false"
     inkscape:snap-nodes="true">
    <inkscape:grid
       type="xygrid"
       id="grid201"
       enabled="true"
       visible="true"
       snapvisiblegridlinesonly="true" />
  </sodipodi:namedview>
  <defs
     id="defs2" />
  <g
     inkscape:label="Warstwa 1"
     inkscape:groupmode="layer"
     id="layer1">
    <circle
       style="fill:#000000;stroke-width:0.264583"
       id="path667"
       cx="26.061893"
       cy="25.933456"
       r="21.166666" />
    <path
       style="fill:#000000;stroke-width:0.0422127"
       d=""
       id="path1885"
       transform="scale(0.26458333)" />
    <path
       style="fill:none;stroke:#000000;stroke-width:0.13697px;stroke-linecap:butt;stroke-linejoin:miter;stroke-opacity:1"
       d="m 22.37248,0.13933849 h 7.3709 L 32.01134,6.7569884 H 20.10451 Z"
       id="path6531" />
    <path
       style="fill:#000000;stroke-width:0.0242131"
       d="m 22.38293,0.17203649 c -0.73996,2.14353791 -1.47565,4.29170291 -2.2059,6.44283691 -0.008,0.19228 0.16906,0.09609 0.25045,0.120774 3.82053,0.01417 7.64115,0.0185 11.46166,-0.0029 0.13469,-0.05279 -0.005,-0.26156 -0.0272,-0.371955 -0.70042,-2.058321 -1.40682,-4.112289 -2.1107,-6.16810291 -0.10274,-0.102477 -0.25082,-0.01834 -0.37144,-0.0457 -2.31873,0 -4.63746,0 -6.95619,0 -0.0136,0.0084 -0.0271,0.01672 -0.0406,0.02508 z"
       id="path6724" />
    <path
       style="fill:none;stroke:#000000;stroke-width:0.13697px;stroke-linecap:butt;stroke-linejoin:miter;stroke-opacity:1"
       d="m 51.86029,22.248011 v 7.3709 l -6.61765,2.26796 v -11.90683 z"
       id="path6531-1" />
    <path
       style="fill:#000000;stroke-width:0.0242131"
       d="m 51.82726,22.250213 c -2.14354,-0.73996 -4.2917,-1.47565 -6.44284,-2.2059 -0.19228,-0.008 -0.0961,0.16906 -0.12077,0.25045 -0.0142,3.82053 -0.0185,7.64115 0.003,11.46166 0.0528,0.13469 0.26156,-0.005 0.37195,-0.0272 2.05832,-0.70042 4.11229,-1.40682 6.16811,-2.1107 0.10247,-0.10274 0.0183,-0.25082 0.0457,-0.37144 0,-2.31873 0,-4.63746 0,-6.95619 -0.008,-0.0136 -0.0167,-0.0271 -0.0251,-0.0406 z"
       id="path6724-1" />
    <path
       style="fill:none;stroke:#000000;stroke-width:0.13697px;stroke-linecap:butt;stroke-linejoin:miter;stroke-opacity:1"
       d="M 41.824205,5.0355403 47.0039,10.279668 43.889437,16.543613 35.522228,8.0723354 Z"
       id="path6531-1-5" />
    <path
       style="fill:#000000;stroke-width:0.0242131"
       d="m 41.802251,5.0603182 c -2.045032,0.979859 -4.090364,1.9660034 -6.133984,2.9581124 -0.142424,0.1294276 0.05039,0.187814 0.09004,0.2630564 2.674668,2.728146 5.35644,5.449402 8.056497,8.152448 0.132216,0.05873 0.182578,-0.187362 0.245517,-0.28073 0.972219,-1.944752 1.937139,-3.890701 2.905149,-5.836158 6.57e-4,-0.1451 -0.163235,-0.191309 -0.2285,-0.296381 -1.629426,-1.6496924 -3.258852,-3.2993838 -4.888278,-4.9490763 -0.01521,-0.00407 -0.03089,-0.0075 -0.04638,-0.011248 z"
       id="path6724-1-1" />
    <path
       style="fill:none;stroke:#000000;stroke-width:0.13697px;stroke-linecap:butt;stroke-linejoin:miter;stroke-opacity:1"
       d="m 0.26347411,22.248011 v 7.3709 l 6.61765509,2.26796 v -11.90683 z"
       id="path6531-1-55" />
    <path
       style="fill:#000000;stroke-width:0.0242131"
       d="m 0.29650411,22.250214 c 2.14354009,-0.739961 4.29169509,-1.47565 6.44283509,-2.2059 0.19228,-0.008 0.0961,0.16906 0.12077,0.25045 0.0142,3.82053 0.0185,7.64115 -0.003,11.46166 -0.0528,0.13469 -0.26156,-0.005 -0.37195,-0.0272 -2.05832,-0.70042 -4.112285,-1.40682 -6.16810509,-2.1107 -0.10247,-0.10274 -0.0183,-0.25082 -0.0457,-0.37144 0,-2.31873 0,-4.63746 0,-6.95619 0.008,-0.0136 0.0167,-0.0271 0.0251,-0.0406 z"
       id="path6724-1-9" />
    <path
       style="fill:none;stroke:#000000;stroke-width:0.13697px;stroke-linecap:butt;stroke-linejoin:miter;stroke-opacity:1"
       d="M 10.372502,5.0303164 5.1281232,10.209758 8.1646073,16.511873 16.636305,8.1450892 Z"
       id="path6531-1-5-6" />
    <path
       style="fill:#000000;stroke-width:0.0242131"
       d="m 10.394146,5.0553658 c 2.032715,1.0051635 4.065651,2.0166145 6.096801,3.0340104 0.140807,0.1311842 -0.05272,0.1871741 -0.0933,0.2619187 C 13.689329,11.046037 10.973991,13.733801 8.2405952,16.40313 8.1076607,16.460211 8.0603564,16.213516 7.9985811,16.119374 7.0505723,14.162707 6.109877,12.204932 5.1660849,10.247611 c 0.00114,-0.145098 0.1655972,-0.189269 0.232161,-0.293523 1.649774,-1.629343 3.299548,-3.2586855 4.9493231,-4.8880289 0.01526,-0.00388 0.03098,-0.00712 0.04651,-0.010671 z"
       id="path6724-1-1-4" />
    <path
       style="fill:none;stroke:#000000;stroke-width:0.13697px;stroke-linecap:butt;stroke-linejoin:miter;stroke-opacity:1"
       d="m 22.37248,51.992157 h 7.3709 l 2.26796,-6.61765 H 20.10451 Z"
       id="path6531-5" />
    <path
       style="fill:#000000;stroke-width:0.0242131"
       d="m 22.38293,51.959459 c -0.73996,-2.143538 -1.47565,-4.291703 -2.2059,-6.442837 -0.008,-0.19228 0.16906,-0.09609 0.25045,-0.120774 3.82053,-0.01417 7.64115,-0.0185 11.46166,0.0029 0.13469,0.05279 -0.005,0.26156 -0.0272,0.371955 -0.70042,2.058321 -1.40682,4.112289 -2.1107,6.168103 -0.10274,0.102477 -0.25082,0.01834 -0.37144,0.0457 -2.31873,0 -4.63746,0 -6.95619,0 -0.0136,-0.0084 -0.0271,-0.01672 -0.0406,-0.02508 z"
       id="path6724-8" />
    <path
       style="fill:none;stroke:#000000;stroke-width:0.13697px;stroke-linecap:butt;stroke-linejoin:miter;stroke-opacity:1"
       d="m 42.976733,46.751033 5.039223,-5.379253 -3.279001,-6.179404 -8.140292,8.689555 z"
       id="path6531-1-5-1" />
    <path
       style="fill:#000000;stroke-width:0.0242131"
       d="m 42.954131,46.726843 c -2.070225,-0.925443 -4.140918,-1.857161 -6.210055,-2.794888 -0.145797,-0.125616 0.04541,-0.189081 0.08305,-0.265345 2.601596,-2.797914 5.210478,-5.589128 7.83812,-8.362621 0.130616,-0.0622 0.187468,0.182468 0.252853,0.27414 1.0233,1.918364 2.039337,3.83812 3.05845,5.757301 0.0045,0.145032 -0.158121,0.195559 -0.220585,0.30232 -1.585236,1.6922 -3.170473,3.384398 -4.755709,5.076597 -0.0151,0.0044 -0.03067,0.0083 -0.04607,0.01247 z"
       id="path6724-1-1-5" />
    <path
       style="fill:none;stroke:#000000;stroke-width:0.13697px;stroke-linecap:butt;stroke-linejoin:miter;stroke-opacity:1"
       d="M 10.103399,47.077376 5.1019522,41.662983 8.4241261,35.506681 16.503396,44.253003 Z"
       id="path6531-1-5-6-1" />
    <path
       style="fill:#000000;stroke-width:0.0242131"
       d="m 10.126169,47.053345 c 2.076653,-0.910929 4.153816,-1.82813 6.229467,-2.751351 0.146672,-0.124591 -0.04408,-0.189393 -0.08119,-0.26592 -2.581949,-2.816056 -5.171229,-5.625463 -7.7793926,-8.417281 -0.1301782,-0.06311 -0.188741,0.181152 -0.2547667,0.272364 -1.0367036,1.911155 -2.0661522,3.823751 -3.0986735,5.735753 -0.00551,0.144997 0.1567473,0.19666 0.2184622,0.303856 1.5733527,1.703254 3.1467054,3.406508 4.7200586,5.109762 0.01507,0.0046 0.03062,0.0085 0.04598,0.01279 z"
       id="path6724-1-1-4-6" />
    <path
       style="fill:none;stroke-width:0.36737"
       d="m 102.9375,1.1664062 c -5.92482,0.032405 -11.849484,0.08702 -17.77422,0.13125 -0.332792,1.6105892 -1.42686,3.2416462 -1.784372,4.6984374 0.121848,0.8134972 -0.62866,1.1006176 -0.471876,1.9164064 -0.581456,0.396776 -0.184464,1.2851916 -0.81172,1.675 -1.00926,3.96781 -2.261372,8.05041 -4.346876,11.575781 -6.481328,2.453606 -12.987276,4.899495 -19.128904,8.189844 -5.089412,-2.130824 -10.151808,-4.781134 -14.997656,-7.54375 -1.204168,-0.172496 -2.102744,-1.049911 -3.303126,-1.413281 -2.29439,0.132785 -3.60673,2.728232 -5.338281,3.970312 -4.812729,4.809111 -9.75394,9.532641 -14.255469,14.617188 0.977564,2.58129 1.744831,5.150906 3.302344,7.439062 1.459922,2.729276 2.785077,5.721516 3.903125,8.503124 1.110272,1.59044 2.595743,3.581104 0.869125,5.340552 -3.060817,5.445524 -4.733396,11.538596 -7.355844,17.176636 -0.53468,0.650384 -1.240483,0.657664 -1.825781,1.165624 -0.66449,-0.196976 -1.158856,0.60634 -1.817188,0.42422 -0.668783,0.67732 -1.661522,0.05503 -2.389062,0.853124 C 12.4653,81.12304 9.1309012,82.06468 6.2281248,83.001564 5.6957628,83.634156 4.9261072,83.252068 4.3390625,83.810156 3.6799922,83.68598 3.1767428,84.484692 2.4335938,84.179688 1.4261303,89.88038 2.1197204,95.804804 1.9042814,101.60078 c 0.2423582,3.37478 -0.4610058,7.02959 0.6550936,10.24219 3.602947,0.75983 7.1768354,2.32027 10.521094,3.61328 0.859367,-0.26831 1.191713,0.61841 2.032031,0.43672 0.389253,0.58621 1.283397,0.17248 1.660938,0.80781 2.174216,0.50132 5.378716,0.65054 5.563516,3.4893 1.980284,6.40001 5.015902,12.38693 7.688046,18.49508 -2.636918,6.3489 -6.690292,12.2192 -9.294531,18.54218 5.413781,6.93742 11.657044,13.23565 17.709375,19.57969 1.93401,-0.64155 3.928016,-1.61517 5.789064,-2.19609 1.611928,-1.32492 3.851948,-1.38452 5.541664,-2.62701 3.048048,-1.58058 6.451664,-2.47614 9.369272,-4.18002 3.462668,0.10408 6.365588,2.60965 9.617084,3.6085 2.945844,1.47473 6.50334,1.90861 9.220416,3.75478 1.165276,2.05586 1.527912,4.68682 2.348436,6.71484 0.365864,0.64211 0.2,1.18045 0.689064,1.76016 -0.189644,1.48611 1.260924,2.83566 1.4875,4.37265 0.909692,2.425 1.688948,5.04915 2.428904,7.44219 8.976896,0.36869 18.032472,0.0368 27.039842,0.0453 0.63298,-2.06371 1.42172,-4.30257 2.28516,-6.18281 -0.26831,-0.85937 0.61841,-1.19171 0.43672,-2.03203 0.64594,-0.34247 -0.006,-1.38333 0.86406,-1.59609 0.90397,-3.68829 2.09834,-7.59471 3.89453,-10.85391 5.75654,-2.45604 11.81084,-4.23914 17.25938,-7.38984 1.79489,-1.28505 3.74676,-2.2013 5.7005,-0.65424 2.44162,1.5579 5.31856,2.16265 7.91278,3.57846 3.17126,1.89229 6.91923,2.71684 10.02734,4.73906 2.86486,0.85993 4.37875,-2.55398 6.24844,-4.03125 4.63015,-4.94732 9.3008,-9.87468 13.84609,-14.90781 -3.73211,-7.31577 -7.99258,-14.49252 -11.39609,-21.89454 2.70914,-5.02697 4.01219,-10.61426 6.46406,-15.72656 0.27604,-0.63916 1.03095,-0.73326 1.51406,-0.82734 0.60037,-0.48579 1.23287,-0.21388 1.81407,-0.73828 1.48749,0.19801 2.82734,-1.28087 4.36929,-1.48869 2.11997,-0.91791 4.6846,-1.35449 6.67055,-2.22225 0.64813,-0.35818 1.18356,-0.21875 1.77891,-0.68438 0.6251,0.16907 1.11302,-0.65153 1.78906,-0.38359 0.74518,-0.98858 2.92224,-0.26493 2.25,-2.07187 0,-8.47552 0,-16.951048 0,-25.426568 -2.06314,-0.486996 -4.27472,-1.48852 -6.14141,-2.121092 -0.80159,-0.05201 -1.19022,-0.51688 -1.99687,-0.563284 -0.36252,-0.47856 -1.2712,-0.06988 -1.58984,-0.767188 -3.67481,-0.902612 -7.54602,-2.168348 -10.79141,-3.931248 -2.1512,-6.461252 -4.61673,-12.941468 -7.99609,-18.928124 2.68917,-6.561772 6.45351,-12.831108 9.27578,-19.416407 -5.94185,-6.545886 -12.22784,-12.866136 -18.87969,-18.671094 -1.5761,0.444153 -2.98868,1.07659 -4.30469,1.7375 -3.38409,2.041328 -7.12115,3.520185 -10.64531,5.199219 -1.96025,0.925167 -4.12898,3.156497 -6.19107,1.194385 -5.50628,-3.09208 -11.57474,-4.925951 -17.35659,-7.36001 -1.07895,-0.445436 -0.60655,-1.607437 -1.28203,-2.241407 0.1876,-0.677684 -0.61018,-1.172093 -0.43359,-1.838281 -0.68248,-0.659798 -0.0533,-1.648099 -0.83125,-2.375 -1.25725,-2.948157 -2.11204,-6.354617 -3.16563,-9.2039058 -0.58203,-0.5739568 -0.23614,-1.2812568 -0.78047,-1.8828127 0.13072,-0.6632609 -0.69217,-1.1622499 -0.35937,-1.915625 -2.99952,-0.74271738 -6.21075,-0.3395476 -9.29297,-0.4570313 z M 98.12578,41.176564 c 16.47001,-0.327088 32.75375,7.1089 43.44706,19.610344 15.49644,17.3695 18.20301,44.542512 6.79336,64.768392 -9.53294,17.46594 -28.72558,29.19916 -48.675576,29.32673 -17.766184,0.64027 -35.32442,-7.96275 -46.14766,-21.98418 -7.506216,-9.62607 -12.100512,-21.76557 -11.684372,-34.058006 -0.237508,-7.407612 0.72378,-14.874656 3.658188,-21.730196 7.81254,-20.121884 27.878496,-35.023876 49.5678,-35.839704 1.012696,-0.05792 2.026956,-0.08429 3.0412,-0.09338 z"
       id="path867"
       transform="scale(0.26458333)" />
    <path
       style="fill:none;stroke-width:0.36737"
       d="m 97.101564,42.552344 c -17.53608,0.29645 -34.640797,9.656767 -44.373439,24.286718 -5.916493,8.750655 -9.755427,19.263178 -9.525048,29.964566 -1.219665,22.391622 13.622323,44.266302 34.394694,52.539842 12.048941,5.05495 25.735539,5.57923 38.146609,1.38809 18.57646,-5.79345 33.08792,-22.40888 37.09545,-41.34939 2.20837,-11.527354 1.16859,-23.792538 -3.94931,-34.525522 C 139.9668,55.100424 118.80823,41.733393 97.101564,42.552344 Z"
       id="path943"
       transform="scale(0.26458333)" />
    <path
       style="fill:#ffffff;stroke-width:0.36737"
       d="m 102.9375,1.1664062 c -5.92482,0.032405 -11.849484,0.08702 -17.77422,0.13125 -0.332792,1.6105892 -1.42686,3.2416462 -1.784372,4.6984374 0.121848,0.8134972 -0.62866,1.1006176 -0.471876,1.9164064 -0.581456,0.396776 -0.184464,1.2851916 -0.81172,1.675 -1.00926,3.96781 -2.261372,8.05041 -4.346876,11.575781 -6.481328,2.453606 -12.987276,4.899495 -19.128904,8.189844 -5.089412,-2.130824 -10.151808,-4.781134 -14.997656,-7.54375 -1.204168,-0.172496 -2.102744,-1.049911 -3.303126,-1.413281 -2.29439,0.132785 -3.60673,2.728232 -5.338281,3.970312 -4.812729,4.809111 -9.75394,9.532641 -14.255469,14.617188 0.977564,2.58129 1.744831,5.150906 3.302344,7.439062 1.459922,2.729276 2.785077,5.721516 3.903125,8.503124 1.110272,1.59044 2.595743,3.581104 0.869125,5.340552 -3.060817,5.445524 -4.733396,11.538596 -7.355844,17.176636 -0.53468,0.650384 -1.240483,0.657664 -1.825781,1.165624 -0.66449,-0.196976 -1.158856,0.60634 -1.817188,0.42422 -0.668783,0.67732 -1.661522,0.05503 -2.389062,0.853124 C 12.4653,81.12304 9.1309012,82.06468 6.2281248,83.001564 5.6957628,83.634156 4.9261072,83.252068 4.3390625,83.810156 3.6799922,83.68598 3.1767428,84.484692 2.4335938,84.179688 1.4261303,89.88038 2.1197204,95.804804 1.9042814,101.60078 c 0.2423582,3.37478 -0.4610058,7.02959 0.6550936,10.24219 3.602947,0.75983 7.1768354,2.32027 10.521094,3.61328 0.859367,-0.26831 1.191713,0.61841 2.032031,0.43672 0.389253,0.58621 1.283397,0.17248 1.660938,0.80781 2.174216,0.50132 5.378716,0.65054 5.563516,3.4893 1.980284,6.40001 5.015902,12.38693 7.688046,18.49508 -2.636918,6.3489 -6.690292,12.2192 -9.294531,18.54218 5.413781,6.93742 11.657044,13.23565 17.709375,19.57969 1.93401,-0.64155 3.928016,-1.61517 5.789064,-2.19609 1.611928,-1.32492 3.851948,-1.38452 5.541664,-2.62701 3.048048,-1.58058 6.451664,-2.47614 9.369272,-4.18002 3.462668,0.10408 6.365588,2.60965 9.617084,3.6085 2.945844,1.47473 6.50334,1.90861 9.220416,3.75478 1.165276,2.05586 1.527912,4.68682 2.348436,6.71484 0.365864,0.64211 0.2,1.18045 0.689064,1.76016 -0.189644,1.48611 1.260924,2.83566 1.4875,4.37265 0.909692,2.425 1.688948,5.04915 2.428904,7.44219 8.976896,0.36869 18.032472,0.0368 27.039842,0.0453 0.63298,-2.06371 1.42172,-4.30257 2.28516,-6.18281 -0.26831,-0.85937 0.61841,-1.19171 0.43672,-2.03203 0.64594,-0.34247 -0.006,-1.38333 0.86406,-1.59609 0.90397,-3.68829 2.09834,-7.59471 3.89453,-10.85391 5.75654,-2.45604 11.81084,-4.23914 17.25938,-7.38984 1.79489,-1.28505 3.74676,-2.2013 5.7005,-0.65424 2.44162,1.5579 5.31856,2.16265 7.91278,3.57846 3.17126,1.89229 6.91923,2.71684 10.02734,4.73906 2.86486,0.85993 4.37875,-2.55398 6.24844,-4.03125 4.63015,-4.94732 9.3008,-9.87468 13.84609,-14.90781 -3.73211,-7.31577 -7.99258,-14.49252 -11.39609,-21.89454 2.70914,-5.02697 4.01219,-10.61426 6.46406,-15.72656 0.27604,-0.63916 1.03095,-0.73326 1.51406,-0.82734 0.60037,-0.48579 1.23287,-0.21388 1.81407,-0.73828 1.48749,0.19801 2.82734,-1.28087 4.36929,-1.48869 2.11997,-0.91791 4.6846,-1.35449 6.67055,-2.22225 0.64813,-0.35818 1.18356,-0.21875 1.77891,-0.68438 0.6251,0.16907 1.11302,-0.65153 1.78906,-0.38359 0.74518,-0.98858 2.92224,-0.26493 2.25,-2.07187 0,-8.47552 0,-16.951048 0,-25.426568 -2.06314,-0.486996 -4.27472,-1.48852 -6.14141,-2.121092 -0.80159,-0.05201 -1.19022,-0.51688 -1.99687,-0.563284 -0.36252,-0.47856 -1.2712,-0.06988 -1.58984,-0.767188 -3.67481,-0.902612 -7.54602,-2.168348 -10.79141,-3.931248 -2.1512,-6.461252 -4.61673,-12.941468 -7.99609,-18.928124 2.68917,-6.561772 6.45351,-12.831108 9.27578,-19.416407 -5.94185,-6.545886 -12.22784,-12.866136 -18.87969,-18.671094 -1.5761,0.444153 -2.98868,1.07659 -4.30469,1.7375 -3.38409,2.041328 -7.12115,3.520185 -10.64531,5.199219 -1.96025,0.925167 -4.12898,3.156497 -6.19107,1.194385 -5.50628,-3.09208 -11.57474,-4.925951 -17.35659,-7.36001 -1.07895,-0.445436 -0.60655,-1.607437 -1.28203,-2.241407 0.1876,-0.677684 -0.61018,-1.172093 -0.43359,-1.838281 -0.68248,-0.659798 -0.0533,-1.648099 -0.83125,-2.375 -1.25725,-2.948157 -2.11204,-6.354617 -3.16563,-9.2039058 -0.58203,-0.5739568 -0.23614,-1.2812568 -0.78047,-1.8828127 0.13072,-0.6632609 -0.69217,-1.1622499 -0.35937,-1.915625 -2.99952,-0.74271738 -6.21075,-0.3395476 -9.29297,-0.4570313 z M 98.12578,41.176564 c 16.47001,-0.327088 32.75375,7.1089 43.44706,19.610344 15.49644,17.3695 18.20301,44.542512 6.79336,64.768392 -9.53294,17.46594 -28.72558,29.19916 -48.675576,29.32673 -17.766184,0.64027 -35.32442,-7.96275 -46.14766,-21.98418 -7.506216,-9.62607 -12.100512,-21.76557 -11.684372,-34.058006 -0.237508,-7.407612 0.72378,-14.874656 3.658188,-21.730196 7.81254,-20.121884 27.878496,-35.023876 49.5678,-35.839704 1.012696,-0.05792 2.026956,-0.08429 3.0412,-0.09338 z"
       id="path982"
       transform="scale(0.26458333)" />
    <path
       style="fill:#ffffff;stroke-width:0.36737"
       d="M 97.633592,42.067969 C 81.612084,41.61344 66.136734,49.637645 55.82758,61.726014 47.056062,71.7146 42.021672,84.996656 42.674309,98.304684 c -0.633831,16.486906 7.5675,32.628556 20.229952,43.017336 8.066393,6.78077 18.213775,11.03399 28.552771,12.42486 10.016028,0.96971 20.242728,-0.0512 29.502608,-4.31554 17.59896,-7.56982 30.88228,-24.8597 33.14427,-43.76806 0.40723,-8.856648 0.6646,-17.948072 -2.70838,-26.344092 -6.51291,-19.502182 -24.9138,-34.138885 -45.19049,-36.928576 -2.85378,-0.269906 -5.70294,-0.337875 -8.571448,-0.322643 z"
       id="path1255"
       transform="scale(0.26458333)" />
  </g>
</svg>
