<?xml version="1.0" encoding="UTF-8" standalone="no"?>
<!-- Created with Inkscape (http://www.inkscape.org/) -->

<svg
   width="210mm"
   height="297mm"
   viewBox="0 0 210 297"
   version="1.1"
   id="svg5"
   sodipodi:docname="gear.svg"
   inkscape:version="1.1.2 (b8e25be833, 2022-02-05)"
   xmlns:inkscape="http://www.inkscape.org/namespaces/inkscape"
   xmlns:sodipodi="http://sodipodi.sourceforge.net/DTD/sodipodi-0.dtd"
   xmlns="http://www.w3.org/2000/svg"
   xmlns:svg="http://www.w3.org/2000/svg">
  <sodipodi:namedview
     id="namedview7"
     pagecolor="#ffffff"
     bordercolor="#666666"
     borderopacity="1.0"
     inkscape:pageshadow="2"
     inkscape:pageopacity="0.0"
     inkscape:pagecheckerboard="0"
     inkscape:document-units="mm"
     showgrid="true"
     inkscape:snap-bbox="true"
     inkscape:bbox-paths="true"
     inkscape:bbox-nodes="true"
     inkscape:snap-bbox-edge-midpoints="true"
     inkscape:snap-bbox-midpoints="true"
     inkscape:snap-grids="true"
     inkscape:zoom="1.2494217"
     inkscape:cx="332.55384"
     inkscape:cy="129.65998"
     inkscape:window-width="1920"
     inkscape:window-height="1017"
     inkscape:window-x="-8"
     inkscape:window-y="-8"
     inkscape:window-maximized="1"
     inkscape:current-layer="layer1"
     inkscape:snap-global="true"
     inkscape:snap-others="true"
     inkscape:object-nodes="false"
     inkscape:snap-nodes="true">
    <inkscape:grid
       type="xygrid"
       id="grid201"
       enabled="true"
       visible="true"
       snapvisiblegridlinesonly="true" />
  </sodipodi:namedview>
  <defs
     id="defs2" />
  <g
     inkscape:label="Warstwa 1"
     inkscape:groupmode="layer"
     id="layer1">
    <circle
       style="fill:#000000;stroke-width:0.264583"
       id="path667"
       cx="26.061893"
       cy="25.933456"
       r="21.166666" />
    <circle
       style="fill:#ffffff;stroke-width:0.243036"
       id="path861"
       cx="26.061893"
       cy="25.933456"
       r="14.882834" />
    <path
       style="fill:#000000;stroke-width:0.0422127"
       d=""
       id="path1885"
       transform="scale(0.26458333)" />
    <path
       style="fill:none;stroke:#000000;stroke-width:0.13697px;stroke-linecap:butt;stroke-linejoin:miter;stroke-opacity:1"
       d="m 22.37248,0.13933849 h 7.3709 L 32.01134,6.7569884 H 20.10451 Z"
       id="path6531" />
    <path
       style="fill:#000000;stroke-width:0.0242131"
       d="m 22.38293,0.17203649 c -0.73996,2.14353791 -1.47565,4.29170291 -2.2059,6.44283691 -0.008,0.19228 0.16906,0.09609 0.25045,0.120774 3.82053,0.01417 7.64115,0.0185 11.46166,-0.0029 0.13469,-0.05279 -0.005,-0.26156 -0.0272,-0.371955 -0.70042,-2.058321 -1.40682,-4.112289 -2.1107,-6.16810291 -0.10274,-0.102477 -0.25082,-0.01834 -0.37144,-0.0457 -2.31873,0 -4.63746,0 -6.95619,0 -0.0136,0.0084 -0.0271,0.01672 -0.0406,0.02508 z"
       id="path6724" />
    <path
       style="fill:none;stroke:#000000;stroke-width:0.13697px;stroke-linecap:butt;stroke-linejoin:miter;stroke-opacity:1"
       d="m 51.86029,22.248011 v 7.3709 l -6.61765,2.26796 v -11.90683 z"
       id="path6531-1" />
    <path
       style="fill:#000000;stroke-width:0.0242131"
       d="m 51.82726,22.250213 c -2.14354,-0.73996 -4.2917,-1.47565 -6.44284,-2.2059 -0.19228,-0.008 -0.0961,0.16906 -0.12077,0.25045 -0.0142,3.82053 -0.0185,7.64115 0.003,11.46166 0.0528,0.13469 0.26156,-0.005 0.37195,-0.0272 2.05832,-0.70042 4.11229,-1.40682 6.16811,-2.1107 0.10247,-0.10274 0.0183,-0.25082 0.0457,-0.37144 0,-2.31873 0,-4.63746 0,-6.95619 -0.008,-0.0136 -0.0167,-0.0271 -0.0251,-0.0406 z"
       id="path6724-1" />
    <path
       style="fill:none;stroke:#000000;stroke-width:0.13697px;stroke-linecap:butt;stroke-linejoin:miter;stroke-opacity:1"
       d="M 41.824205,5.0355403 47.0039,10.279668 43.889437,16.543613 35.522228,8.0723354 Z"
       id="path6531-1-5" />
    <path
       style="fill:#000000;stroke-width:0.0242131"
       d="m 41.802251,5.0603182 c -2.045032,0.979859 -4.090364,1.9660034 -6.133984,2.9581124 -0.142424,0.1294276 0.05039,0.187814 0.09004,0.2630564 2.674668,2.728146 5.35644,5.449402 8.056497,8.152448 0.132216,0.05873 0.182578,-0.187362 0.245517,-0.28073 0.972219,-1.944752 1.937139,-3.890701 2.905149,-5.836158 6.57e-4,-0.1451 -0.163235,-0.191309 -0.2285,-0.296381 -1.629426,-1.6496924 -3.258852,-3.2993838 -4.888278,-4.9490763 -0.01521,-0.00407 -0.03089,-0.0075 -0.04638,-0.011248 z"
       id="path6724-1-1" />
    <path
       style="fill:none;stroke:#000000;stroke-width:0.13697px;stroke-linecap:butt;stroke-linejoin:miter;stroke-opacity:1"
       d="m 0.26347411,22.248011 v 7.3709 l 6.61765509,2.26796 v -11.90683 z"
       id="path6531-1-55" />
    <path
       style="fill:#000000;stroke-width:0.0242131"
       d="m 0.29650411,22.250214 c 2.14354009,-0.739961 4.29169509,-1.47565 6.44283509,-2.2059 0.19228,-0.008 0.0961,0.16906 0.12077,0.25045 0.0142,3.82053 0.0185,7.64115 -0.003,11.46166 -0.0528,0.13469 -0.26156,-0.005 -0.37195,-0.0272 -2.05832,-0.70042 -4.112285,-1.40682 -6.16810509,-2.1107 -0.10247,-0.10274 -0.0183,-0.25082 -0.0457,-0.37144 0,-2.31873 0,-4.63746 0,-6.95619 0.008,-0.0136 0.0167,-0.0271 0.0251,-0.0406 z"
       id="path6724-1-9" />
    <path
       style="fill:none;stroke:#000000;stroke-width:0.13697px;stroke-linecap:butt;stroke-linejoin:miter;stroke-opacity:1"
       d="M 10.372502,5.0303164 5.1281232,10.209758 8.1646073,16.511873 16.636305,8.1450892 Z"
       id="path6531-1-5-6" />
    <path
       style="fill:#000000;stroke-width:0.0242131"
       d="m 10.394146,5.0553658 c 2.032715,1.0051635 4.065651,2.0166145 6.096801,3.0340104 0.140807,0.1311842 -0.05272,0.1871741 -0.0933,0.2619187 C 13.689329,11.046037 10.973991,13.733801 8.2405952,16.40313 8.1076607,16.460211 8.0603564,16.213516 7.9985811,16.119374 7.0505723,14.162707 6.109877,12.204932 5.1660849,10.247611 c 0.00114,-0.145098 0.1655972,-0.189269 0.232161,-0.293523 1.649774,-1.629343 3.299548,-3.2586855 4.9493231,-4.8880289 0.01526,-0.00388 0.03098,-0.00712 0.04651,-0.010671 z"
       id="path6724-1-1-4" />
    <path
       style="fill:none;stroke:#000000;stroke-width:0.13697px;stroke-linecap:butt;stroke-linejoin:miter;stroke-opacity:1"
       d="m 22.37248,51.992157 h 7.3709 l 2.26796,-6.61765 H 20.10451 Z"
       id="path6531-5" />
    <path
       style="fill:#000000;stroke-width:0.0242131"
       d="m 22.38293,51.959459 c -0.73996,-2.143538 -1.47565,-4.291703 -2.2059,-6.442837 -0.008,-0.19228 0.16906,-0.09609 0.25045,-0.120774 3.82053,-0.01417 7.64115,-0.0185 11.46166,0.0029 0.13469,0.05279 -0.005,0.26156 -0.0272,0.371955 -0.70042,2.058321 -1.40682,4.112289 -2.1107,6.168103 -0.10274,0.102477 -0.25082,0.01834 -0.37144,0.0457 -2.31873,0 -4.63746,0 -6.95619,0 -0.0136,-0.0084 -0.0271,-0.01672 -0.0406,-0.02508 z"
       id="path6724-8" />
    <path
       style="fill:none;stroke:#000000;stroke-width:0.13697px;stroke-linecap:butt;stroke-linejoin:miter;stroke-opacity:1"
       d="m 42.976733,46.751033 5.039223,-5.379253 -3.279001,-6.179404 -8.140292,8.689555 z"
       id="path6531-1-5-1" />
    <path
       style="fill:#000000;stroke-width:0.0242131"
       d="m 42.954131,46.726843 c -2.070225,-0.925443 -4.140918,-1.857161 -6.210055,-2.794888 -0.145797,-0.125616 0.04541,-0.189081 0.08305,-0.265345 2.601596,-2.797914 5.210478,-5.589128 7.83812,-8.362621 0.130616,-0.0622 0.187468,0.182468 0.252853,0.27414 1.0233,1.918364 2.039337,3.83812 3.05845,5.757301 0.0045,0.145032 -0.158121,0.195559 -0.220585,0.30232 -1.585236,1.6922 -3.170473,3.384398 -4.755709,5.076597 -0.0151,0.0044 -0.03067,0.0083 -0.04607,0.01247 z"
       id="path6724-1-1-5" />
    <path
       style="fill:none;stroke:#000000;stroke-width:0.13697px;stroke-linecap:butt;stroke-linejoin:miter;stroke-opacity:1"
       d="M 10.103399,47.077376 5.1019522,41.662983 8.4241261,35.506681 16.503396,44.253003 Z"
       id="path6531-1-5-6-1" />
    <path
       style="fill:#000000;stroke-width:0.0242131"
       d="m 10.126169,47.053345 c 2.076653,-0.910929 4.153816,-1.82813 6.229467,-2.751351 0.146672,-0.124591 -0.04408,-0.189393 -0.08119,-0.26592 -2.581949,-2.816056 -5.171229,-5.625463 -7.7793926,-8.417281 -0.1301782,-0.06311 -0.188741,0.181152 -0.2547667,0.272364 -1.0367036,1.911155 -2.0661522,3.823751 -3.0986735,5.735753 -0.00551,0.144997 0.1567473,0.19666 0.2184622,0.303856 1.5733527,1.703254 3.1467054,3.406508 4.7200586,5.109762 0.01507,0.0046 0.03062,0.0085 0.04598,0.01279 z"
       id="path6724-1-1-4-6" />
  </g>
</svg>
