<?xml version="1.0" encoding="UTF-8" standalone="no"?>
<!-- Created with Inkscape (http://www.inkscape.org/) -->

<svg
   width="210mm"
   height="297mm"
   viewBox="0 0 210 297"
   version="1.1"
   id="svg5"
   inkscape:version="1.1.2 (b8e25be833, 2022-02-05)"
   sodipodi:docname="info.svg"
   xmlns:inkscape="http://www.inkscape.org/namespaces/inkscape"
   xmlns:sodipodi="http://sodipodi.sourceforge.net/DTD/sodipodi-0.dtd"
   xmlns="http://www.w3.org/2000/svg"
   xmlns:svg="http://www.w3.org/2000/svg">
  <sodipodi:namedview
     id="namedview7"
     pagecolor="#ffffff"
     bordercolor="#666666"
     borderopacity="1.0"
     inkscape:pageshadow="2"
     inkscape:pageopacity="0.0"
     inkscape:pagecheckerboard="0"
     inkscape:document-units="mm"
     showgrid="true"
     inkscape:snap-bbox="true"
     inkscape:bbox-paths="true"
     inkscape:bbox-nodes="true"
     inkscape:snap-bbox-edge-midpoints="true"
     inkscape:snap-bbox-midpoints="true"
     inkscape:zoom="4"
     inkscape:cx="134.625"
     inkscape:cy="63.75"
     inkscape:window-width="1920"
     inkscape:window-height="1017"
     inkscape:window-x="-8"
     inkscape:window-y="-8"
     inkscape:window-maximized="1"
     inkscape:current-layer="layer1">
    <inkscape:grid
       type="xygrid"
       id="grid159" />
  </sodipodi:namedview>
  <defs
     id="defs2" />
  <g
     inkscape:label="Warstwa 1"
     inkscape:groupmode="layer"
     id="layer1">
    <circle
       style="fill:#000000;stroke-width:0.264583"
       id="path31"
       cx="13.229167"
       cy="13.342"
       r="13.342" />
    <circle
       style="fill:#ffffff;stroke-width:0.334348"
       id="path33"
       cx="13.402416"
       cy="13.229167"
       r="9.0871668" />
    <path
       style="fill:none;stroke:#000000;stroke-width:0.199999px;stroke-linecap:butt;stroke-linejoin:miter;stroke-opacity:1"
       d="M 11.939683,10.862158 H 14.51865 V 21.331295 H 11.939683 Z"
       id="path194" />
    <path
       style="fill:#000000;stroke-width:0.0463088"
       d="m 11.990987,10.954653 c -0.05102,1.020451 -0.0073,2.064545 -0.02185,3.094084 0,2.388179 0,4.77636 0,7.164538 0.140509,0.251129 0.467679,0.05354 0.683147,0.116364 0.594805,-0.01484 1.198997,0.02969 1.787967,-0.02205 0.11303,-0.258791 0.01871,-0.64758 0.04968,-0.956221 0,-3.106429 0,-6.212856 0,-9.319285 -0.140507,-0.25113 -0.467679,-0.05354 -0.683146,-0.116366 -0.594803,0.01484 -1.198997,-0.02969 -1.787969,0.02205 z"
       id="path309" />
    <path
       style="fill:none;stroke:#000000;stroke-width:0.195908px;stroke-linecap:butt;stroke-linejoin:miter;stroke-opacity:1"
       d="M 11.937709,6.4022903 V 8.631163"
       id="path414" />
    <path
       style="fill:none;stroke:#000000;stroke-width:0.195908px;stroke-linecap:butt;stroke-linejoin:miter;stroke-opacity:1"
       d="M 14.520624,8.631163 H 11.937709"
       id="path416" />
    <path
       style="fill:none;stroke:#000000;stroke-width:0.195908px;stroke-linecap:butt;stroke-linejoin:miter;stroke-opacity:1"
       d="m 11.937709,6.4022903 h 2.582915"
       id="path418" />
    <path
       style="fill:none;stroke:#000000;stroke-width:0.195908px;stroke-linecap:butt;stroke-linejoin:miter;stroke-opacity:1"
       d="M 14.520624,8.631163 V 6.4022903"
       id="path420" />
    <path
       style="fill:#000000;stroke-width:0.0453617"
       d="m 11.989092,6.4586888 c -0.05108,0.6679892 -0.0073,1.3586242 -0.02188,2.0353202 0.140723,0.240595 0.468395,0.05129 0.684192,0.111484 0.595715,-0.01422 1.200832,0.02844 1.790704,-0.02112 0.113203,-0.247934 0.01874,-0.620412 0.04975,-0.916104 -0.01802,-0.4038534 0.0368,-0.8278811 -0.02881,-1.2185519 -0.748646,-0.066104 -1.514799,-0.00933 -2.270155,-0.028324 -0.07006,0.0041 -0.142512,-0.019391 -0.203794,0.037295 z"
       id="path459" />
  </g>
</svg>
