# Blender v2.93.2 OBJ File: 'robot.blend'
# www.blender.org
mtllib sofa.mtl
o Cube.004_Cube
v 2.500000 -0.500000 -1.500000
v 2.500000 0.500000 -1.500000
v 2.500000 -0.500000 1.500000
v 2.500000 1.399850 1.500000
v -0.500000 -0.500000 -1.500000
v -0.500000 0.500000 -1.500000
v -0.500000 -0.500000 1.500000
v -0.500000 1.399850 1.500000
v -1.500000 0.500000 1.500000
v -1.500000 -0.500000 1.500000
v -1.500000 -0.500000 -1.500000
v -1.500000 0.500000 -1.500000
v -0.500000 2.500000 1.500000
v -0.500000 2.500000 -1.500000
v -1.500000 2.500000 1.500000
v -1.500000 2.500000 -1.500000
v 2.500000 1.399850 2.500000
v 2.500000 -0.500000 2.500000
v -0.500000 -0.500000 2.500000
v -0.500000 1.399850 2.500000
v -1.500000 0.500000 2.500000
v -1.500000 -0.500000 2.500000
v -1.500000 2.500000 2.500000
v -0.500000 2.500000 2.500000
v 2.500000 -0.500000 -1.500000
v 2.500000 1.399850 -1.500000
v -0.500000 1.399850 -1.500000
v -0.500000 -0.500000 -1.500000
v -1.500000 0.500000 -1.500000
v -1.500000 -0.500000 -1.500000
v -0.500000 2.500000 -1.500000
v -1.500000 2.500000 -1.500000
v 2.500000 -0.500000 -2.500000
v 2.500000 1.399850 -2.500000
v -0.500000 1.399850 -2.500000
v -0.500000 -0.500000 -2.500000
v -1.500000 0.500000 -2.500000
v -1.500000 -0.500000 -2.500000
v -0.500000 2.500000 -2.500000
v -1.500000 2.500000 -2.500000
v 2.500000 0.500000 1.500000
v -0.500000 0.500000 1.500000
v 2.500000 0.500000 2.500000
v -0.500000 0.500000 2.500000
vn 1.0000 0.0000 0.0000
vn 0.0000 -1.0000 0.0000
vn 0.0000 0.0000 1.0000
vn 0.0000 1.0000 0.0000
vn -1.0000 0.0000 0.0000
vn 0.0000 0.0000 -1.0000
usemtl None
s off
f 1//1 2//1 41//1 3//1
f 10//2 7//2 19//2 22//2
f 42//1 6//1 14//1 13//1
f 16//3 14//3 31//3 32//3
f 3//2 7//2 5//2 1//2
f 42//4 41//4 2//4 6//4
f 10//5 9//5 12//5 11//5
f 7//2 3//2 18//2 19//2
f 14//3 6//3 27//3 31//3
f 5//2 7//2 10//2 11//2
f 13//4 14//4 16//4 15//4
f 15//5 9//5 21//5 23//5
f 11//3 12//3 29//3 30//3
f 12//5 9//5 15//5 16//5
f 18//3 43//3 44//3 19//3
f 19//3 44//3 21//3 22//3
f 21//3 44//3 24//3 23//3
f 4//4 8//4 20//4 17//4
f 42//1 13//1 24//1 44//1
f 3//1 41//1 43//1 18//1
f 13//4 15//4 23//4 24//4
f 9//5 10//5 22//5 21//5
f 25//2 28//2 36//2 33//2
f 30//5 29//5 37//5 38//5
f 28//2 30//2 38//2 36//2
f 6//3 2//3 26//3 27//3
f 12//3 16//3 32//3 29//3
f 2//3 1//3 25//3 26//3
f 1//3 5//3 28//3 25//3
f 5//3 11//3 30//3 28//3
f 36//6 35//6 34//6 33//6
f 35//6 36//6 38//6 37//6
f 35//6 37//6 40//6 39//6
f 26//1 25//1 33//1 34//1
f 29//5 32//5 40//5 37//5
f 32//4 31//4 39//4 40//4
f 27//4 26//4 34//4 35//4
f 31//1 27//1 35//1 39//1
f 8//6 4//6 41//6 42//6
f 17//3 20//3 44//3 43//3
f 20//5 8//5 42//5 44//5
f 4//1 17//1 43//1 41//1
