{
    "asset" : {
        "generator" : "Khronos glTF Blender I/O v1.6.16",
        "version" : "2.0"
    },
    "scene" : 0,
    "scenes" : [
        {
            "name" : "Scene",
            "nodes" : [
                0
            ]
        }
    ],
    "nodes" : [
        {
            "mesh" : 0,
            "name" : "player",
            "scale" : [
                0.14053305983543396,
                0.14053305983543396,
                0.14053305983543396
            ],
            "translation" : [
                0,
                0.019635315984487534,
                0
            ]
        }
    ],
    "meshes" : [
        {
            "name" : "player",
            "primitives" : [
                {
                    "attributes" : {
                        "POSITION" : 0,
                        "NORMAL" : 1,
                        "TEXCOORD_0" : 2
                    },
                    "indices" : 3
                }
            ]
        }
    ],
    "accessors" : [
        {
            "bufferView" : 0,
            "componentType" : 5126,
            "count" : 923,
            "max" : [
                4.4701128005981445,
                12.516850471496582,
                1.7521830797195435
            ],
            "min" : [
                -4.6085591316223145,
                -0.1397165060043335,
                -1.7521827220916748
            ],
            "type" : "VEC3"
        },
        {
            "bufferView" : 1,
            "componentType" : 5126,
            "count" : 923,
            "type" : "VEC3"
        },
        {
            "bufferView" : 2,
            "componentType" : 5126,
            "count" : 923,
            "type" : "VEC2"
        },
        {
            "bufferView" : 3,
            "componentType" : 5123,
            "count" : 3984,
            "type" : "SCALAR"
        }
    ],
    "bufferViews" : [
        {
            "buffer" : 0,
            "byteLength" : 11076,
            "byteOffset" : 0
        },
        {
            "buffer" : 0,
            "byteLength" : 11076,
            "byteOffset" : 11076
        },
        {
            "buffer" : 0,
            "byteLength" : 7384,
            "byteOffset" : 22152
        },
        {
            "buffer" : 0,
            "byteLength" : 7968,
            "byteOffset" : 29536
        }
    ],
    "buffers" : [
        {
            "byteLength" : 37504,
            "uri" : "data:application/octet-stream;base64,"
        }
    ]
}
